#!OML:ASF F:\VICON\USERDATA\INSTALL\rory3\rory3.ASF
:FULLY-SPECIFIED
:DEGREES
516
root 4.55121 15.9743 2.2303 21.3578 -8.63409 -0.199639
lowerback 10.9571 -1.35694 2.1944
upperback 3.11137 -1.55404 0.160915
thorax -2.94832 -0.778792 -0.861348
lowerneck -14.7916 -1.02248 -2.44222
upperneck 34.4188 -0.4329 -1.25031
head 14.2732 -0.71016 -0.157513
rclavicle 9.64106e-015 -9.19379e-015
rhumerus -54.9947 48.7074 -62.5572
rradius 74.0288
rwrist -22.2817
rhand -7.97558 -41.3144
rfingers 7.12502
rthumb 17.9323 -70.5076
lclavicle 9.64106e-015 -9.19379e-015
lhumerus -41.4571 -61.6242 53.6026
lradius 66.9111
lwrist 46.5832
lhand -16.6826 -26.5619
lfingers 7.12502
lthumb 9.54161 3.20208
rfemur -75.5564 -4.2459 22.0582
rtibia 38.4742
rfoot 37.5815 -2.87763
rtoes 9.6171
lfemur -52.6377 -1.26426 -29.9476
ltibia 56.7716
lfoot -23.6469 5.61937
ltoes 13.2125
517
root 4.5524 15.9629 2.23457 21.4148 -8.6347 -0.0889918
lowerback 10.922 -1.39066 2.1484
upperback 3.15317 -1.60523 0.152727
thorax -2.88628 -0.803171 -0.838479
lowerneck -14.8066 -1.00217 -2.32334
upperneck 34.4255 -0.351625 -1.49706
head 14.2787 -0.693607 -0.26566
rclavicle 1.09829e-014 3.18055e-015
rhumerus -54.9995 48.7272 -62.294
rradius 74.0884
rwrist -22.2307
rhand -8.01694 -41.4609
rfingers 7.12502
rthumb 17.8925 -70.6578
lclavicle 1.09829e-014 3.18055e-015
lhumerus -41.9444 -61.8594 53.7979
lradius 66.8126
lwrist 46.6446
lhand -16.4496 -26.4047
lfingers 7.12502
lthumb 9.76638 3.34886
rfemur -75.7518 -4.3631 22.0132
rtibia 38.6244
rfoot 37.6761 -2.26107
rtoes 8.90715
lfemur -52.7594 -1.34142 -30.0694
ltibia 56.8838
lfoot -23.6807 5.63516
ltoes 14.536
518
root 4.55575 15.9563 2.23363 21.403 -8.58 0.154326
lowerback 10.9958 -1.45756 1.99039
upperback 3.18401 -1.71026 0.112183
thorax -2.89482 -0.854435 -0.776375
lowerneck -14.8343 -0.975927 -2.32963
upperneck 34.4424 -0.314838 -1.48606
head 14.2926 -0.67778 -0.25454
rclavicle 6.90777e-015 1.26725e-014
rhumerus -54.9674 48.9932 -62.1389
rradius 73.9524
rwrist -22.4568
rhand -8.09954 -41.7185
rfingers 7.12502
rthumb 17.8131 -70.9227
lclavicle 6.90777e-015 1.26725e-014
lhumerus -42.3286 -62.0157 53.8187
lradius 66.8389
lwrist 46.9247
lhand -15.9082 -26.2821
lfingers 7.12502
lthumb 10.2887 3.44623
rfemur -75.8958 -4.59989 21.8708
rtibia 38.7591
rfoot 35.7259 -1.78528
rtoes 1.91838
lfemur -52.7699 -1.5212 -30.31
ltibia 56.9303
lfoot -23.7022 5.71947
ltoes 12.9326
519
root 4.5583 15.9512 2.2303 21.3871 -8.53594 0.299014
lowerback 11.1744 -1.4956 1.90168
upperback 3.18586 -1.76623 0.0955921
thorax -2.99045 -0.882373 -0.731801
lowerneck -15.0016 -0.999445 -2.42437
upperneck 34.5633 -0.36036 -1.3535
head 14.3867 -0.693342 -0.193654
rclavicle -2.13694e-015 -1.02374e-014
rhumerus -54.985 49.2656 -61.9864
rradius 73.736
rwrist -22.579
rhand -7.75436 -41.7154
rfingers 7.12502
rthumb 18.1452 -70.889
lclavicle -2.13694e-015 -1.02374e-014
lhumerus -42.6568 -62.1922 53.8392
lradius 66.8804
lwrist 47.0844
lhand -16.1132 -26.299
lfingers 7.12502
lthumb 10.0909 3.43906
rfemur -75.9886 -4.81223 21.8711
rtibia 38.8228
rfoot 37.6744 -1.43608
rtoes 7.42643
lfemur -52.7698 -1.59995 -30.4727
ltibia 56.9377
lfoot -23.7362 5.7635
ltoes 14.3098
520
root 4.55756 15.9507 2.22714 21.4426 -8.54986 0.271782
lowerback 11.3343 -1.48122 1.91954
upperback 3.13206 -1.73956 0.128185
thorax -3.13287 -0.870461 -0.70692
lowerneck -15.1559 -1.00879 -2.28901
upperneck 34.7974 -0.315887 -1.61106
head 14.5289 -0.694705 -0.319022
rclavicle 1.36664e-015 -1.49089e-015
rhumerus -55.2603 49.2535 -61.8828
rradius 73.6955
rwrist -22.3441
rhand -7.16969 -41.6992
rfingers 7.12502
rthumb 18.7076 -70.8196
lclavicle 1.36664e-015 -1.49089e-015
lhumerus -43.0391 -62.7235 53.9905
lradius 66.8842
lwrist 47.2763
lhand -16.9819 -26.334
lfingers 7.12502
lthumb 9.25281 3.44293
rfemur -76.0683 -4.85082 21.9975
rtibia 38.822
rfoot 37.7486 -1.51864
rtoes 7.43642
lfemur -52.8599 -1.57766 -30.4483
ltibia 56.9373
lfoot -23.7235 5.73582
ltoes 13.7745
521
root 4.55695 15.9534 2.22454 21.517 -8.52985 0.255955
lowerback 11.3891 -1.47378 1.97283
upperback 3.08212 -1.72056 0.158364
thorax -3.21496 -0.86209 -0.706092
lowerneck -14.9683 -0.979091 -2.13874
upperneck 34.8235 -0.215777 -1.91649
head 14.4976 -0.673585 -0.453071
rclavicle 1.86361e-015 2.10712e-014
rhumerus -55.6359 49.1859 -61.8817
rradius 73.6775
rwrist -22.1611
rhand -6.98695 -41.6975
rfingers 7.12502
rthumb 18.8834 -70.8009
lclavicle 1.86361e-015 2.10712e-014
lhumerus -43.3902 -63.1189 54.0703
lradius 66.8853
lwrist 47.3091
lhand -16.4975 -25.8869
lfingers 7.12502
lthumb 9.72023 3.8688
rfemur -76.1505 -4.91336 22.1191
rtibia 38.7847
rfoot 37.8193 -1.54897
rtoes 7.30406
lfemur -52.9423 -1.63919 -30.3956
ltibia 56.9392
lfoot -23.6995 5.73312
ltoes 13.2425
522
root 4.5574 15.9528 2.22221 21.5845 -8.5144 0.219573
lowerback 11.4382 -1.49015 2.05011
upperback 3.07191 -1.73111 0.178802
thorax -3.25438 -0.867945 -0.725456
lowerneck -14.6905 -0.959612 -2.32948
upperneck 34.6494 -0.221842 -1.6914
head 14.3551 -0.667755 -0.32432
rclavicle -2.40032e-014 1.78906e-015
rhumerus -55.8466 49.3435 -61.9225
rradius 73.5721
rwrist -22.2492
rhand -7.59034 -41.4665
rfingers 7.12502
rthumb 18.303 -70.6254
lclavicle -2.40032e-014 1.78906e-015
lhumerus -43.7636 -63.0032 54.0287
lradius 66.9538
lwrist 47.1416
lhand -15.3172 -25.4552
lfingers 7.12502
lthumb 10.8588 4.24408
rfemur -76.2439 -5.01678 22.327
rtibia 38.7596
rfoot 37.8546 -1.69996
rtoes 7.54346
lfemur -53.0257 -1.64348 -30.3514
ltibia 56.9685
lfoot -23.7573 5.72975
ltoes 13.8856
523
root 4.55747 15.9493 2.22072 21.6269 -8.53995 0.177369
lowerback 11.5955 -1.51456 2.08945
upperback 3.03789 -1.75383 0.186707
thorax -3.37765 -0.880366 -0.731682
lowerneck -14.6439 -0.956358 -2.47685
upperneck 34.5965 -0.255762 -1.46645
head 14.321 -0.670671 -0.211493
rclavicle -1.39398e-014 5.96354e-015
rhumerus -56.084 49.6427 -62.0485
rradius 73.4216
rwrist -22.286
rhand -8.31436 -41.2818
rfingers 7.12502
rthumb 17.6063 -70.5046
lclavicle -1.39398e-014 5.96354e-015
lhumerus -44.3515 -62.9606 54.1637
lradius 67.0187
lwrist 47.0794
lhand -15.3212 -25.7223
lfingers 7.12502
lthumb 10.8549 3.97717
rfemur -76.3305 -5.06533 22.4996
rtibia 38.7977
rfoot 37.7849 -1.94336
rtoes 7.94506
lfemur -53.1171 -1.53997 -30.343
ltibia 57.0137
lfoot -23.8412 5.64957
ltoes 14.5464
524
root 4.55762 15.9442 2.22175 21.67 -8.53029 0.225252
lowerback 11.8067 -1.5497 2.05822
upperback 2.90618 -1.79552 0.20609
thorax -3.63062 -0.903145 -0.680408
lowerneck -14.6075 -0.9483 -2.43316
upperneck 34.7383 -0.210091 -1.60305
head 14.3776 -0.666168 -0.268833
rclavicle 4.64659e-015 -3.37934e-015
rhumerus -56.5775 49.9607 -62.2086
rradius 73.3548
rwrist -22.2573
rhand -7.94504 -41.5595
rfingers 7.12502
rthumb 17.9617 -70.7501
lclavicle 4.64659e-015 -3.37934e-015
lhumerus -45.2247 -63.0775 54.716
lradius 66.9733
lwrist 47.018
lhand -15.7689 -26.2745
lfingers 7.12502
lthumb 10.4231 3.4471
rfemur -76.4435 -5.14052 22.5242
rtibia 38.8802
rfoot 36.3957 -2.55798
rtoes 4.98282
lfemur -53.1974 -1.50464 -30.4189
ltibia 57.0615
lfoot -23.9006 5.56611
ltoes 13.1912
525
root 4.55742 15.9382 2.22457 21.743 -8.48055 0.291352
lowerback 11.9537 -1.56395 2.03411
upperback 2.7587 -1.80976 0.23987
thorax -3.86396 -0.912188 -0.623331
lowerneck -14.4404 -0.952865 -2.48403
upperneck 34.869 -0.183282 -1.67001
head 14.4004 -0.671704 -0.283248
rclavicle 2.35808e-014 -2.45251e-014
rhumerus -57.1564 50.188 -62.3744
rradius 73.296
rwrist -22.2433
rhand -7.84769 -41.6105
rfingers 7.12502
rthumb 18.0554 -70.7925
lclavicle 2.35808e-014 -2.45251e-014
lhumerus -45.9471 -63.2443 55.2184
lradius 66.8874
lwrist 46.919
lhand -16.3494 -26.7868
lfingers 7.12502
lthumb 9.8631 2.96213
rfemur -76.5925 -5.26542 22.554
rtibia 38.9674
rfoot 36.3945 -2.5372
rtoes 4.75079
lfemur -53.2841 -1.50573 -30.508
ltibia 57.1065
lfoot -23.9424 5.51141
ltoes 15.2754
526
root 4.55588 15.9351 2.22687 21.7897 -8.47899 0.348009
lowerback 12.0168 -1.49896 2.02334
upperback 2.74568 -1.72511 0.206824
thorax -3.91064 -0.870821 -0.662837
lowerneck -14.4636 -1.0657 -2.66564
upperneck 34.9771 -0.392958 -1.38294
head 14.4574 -0.746362 -0.169007
rclavicle -1.35049e-014 1.92076e-014
rhumerus -57.5718 50.0965 -62.5724
rradius 73.0632
rwrist -22.0873
rhand -8.42944 -41.3246
rfingers 7.12502
rthumb 17.4956 -70.5574
lclavicle -1.35049e-014 1.92076e-014
lhumerus -45.8062 -63.5234 54.8559
lradius 66.8662
lwrist 46.8078
lhand -16.7622 -26.8561
lfingers 7.12502
lthumb 9.46481 2.91141
rfemur -76.7057 -5.34103 22.5768
rtibia 39.0062
rfoot 37.7008 -1.89936
rtoes 7.09311
lfemur -53.3392 -1.44485 -30.5993
ltibia 57.1167
lfoot -23.9377 5.41791
ltoes 15.9042
527
root 4.55319 15.935 2.22601 21.8298 -8.46372 0.347325
lowerback 12.0419 -1.43231 2.06136
upperback 2.81713 -1.6347 0.167679
thorax -3.84938 -0.825866 -0.739365
lowerneck -14.6328 -1.19987 -2.74996
upperneck 34.9931 -0.647521 -1.12555
head 14.5059 -0.83001 -0.0913162
rclavicle -1.72943e-014 -1.3741e-014
rhumerus -57.6997 49.7605 -62.6022
rradius 72.8513
rwrist -21.8428
rhand -7.90207 -41.6608
rfingers 7.12502
rthumb 18.0031 -70.8476
lclavicle -1.72943e-014 -1.3741e-014
lhumerus -45.2936 -63.7541 54.1077
lradius 66.9344
lwrist 46.8402
lhand -16.6037 -26.3647
lfingers 7.12502
lthumb 9.61776 3.39575
rfemur -76.7937 -5.35555 22.5941
rtibia 39.0255
rfoot 37.8061 -1.90416
rtoes 7.31022
lfemur -53.4055 -1.39693 -30.6075
ltibia 57.1292
lfoot -23.9173 5.36484
ltoes 15.6749
